<svg xmlns="http://www.w3.org/2000/svg" width="1090" height="360" fill="none" viewBox="0 0 1090 360">
  <path xmlns="http://www.w3.org/2000/svg" fill="#0866FF" d="M 881.583 257.897 L 911.063 257.897 L 911.063 210.201 L 952.2 257.897 L 988.272 257.897 L 940.382 202.928 L 981.291 155.265 L 948.466 155.265 L 911.063 199.195 L 911.063 102.213 L 881.583 106.077 L 881.583 257.897 Z M 813.595 152.636 C 780.867 152.636 758.14 174.649 758.14 206.565 C 758.14 238.481 780.867 260.494 813.595 260.494 C 846.322 260.494 869.05 238.481 869.05 206.565 C 869.05 174.649 846.322 152.636 813.595 152.636 Z M 813.595 235.364 C 798.432 235.364 788.043 223.643 788.043 206.565 C 788.043 189.487 798.432 177.766 813.595 177.766 C 828.757 177.766 839.147 189.487 839.147 206.565 C 839.147 223.643 828.757 235.364 813.595 235.364 Z M 693.788 152.636 C 661.061 152.636 638.333 174.649 638.333 206.565 C 638.333 238.481 661.061 260.494 693.788 260.494 C 726.516 260.494 749.243 238.481 749.243 206.565 C 749.243 174.649 726.516 152.636 693.788 152.636 Z M 693.788 235.364 C 678.626 235.364 668.236 223.643 668.236 206.565 C 668.236 189.487 678.626 177.766 693.788 177.766 C 708.951 177.766 719.34 189.487 719.34 206.565 C 719.34 223.643 708.951 235.364 693.788 235.364 Z M 580.962 152.636 C 567.326 152.636 556.027 157.993 548.949 167.798 L 548.949 102.213 L 519.436 106.044 L 519.436 257.864 L 545.605 257.864 L 546.124 242.02 C 553.105 253.838 565.605 260.494 580.962 260.494 C 608.95 260.494 629.437 237.766 629.437 206.565 C 629.437 175.363 609.047 152.636 580.962 152.636 Z M 573.982 235.364 C 558.819 235.364 548.43 223.643 548.43 206.565 C 548.43 189.487 558.819 177.766 573.982 177.766 C 589.144 177.766 599.534 189.487 599.534 206.565 C 599.534 223.643 589.144 235.364 573.982 235.364 Z M 460.344 236.695 C 444.695 236.695 433.461 229.422 429.63 216.89 L 502.26 216.89 C 502.975 213.059 503.462 208.513 503.462 205.461 C 503.462 172.441 484.987 152.636 453.948 152.636 C 422.617 152.636 400.928 174.649 400.928 206.565 C 400.928 238.903 423.656 260.494 457.39 260.494 C 474.857 260.494 491.838 254.65 502.455 244.942 L 491.838 226.241 C 481.546 233.351 471.448 236.695 460.344 236.695 Z M 453.753 175.558 C 467.39 175.558 476.091 183.837 476.091 196.662 L 476.091 196.76 L 429.013 196.76 C 431.838 183.156 440.636 175.558 453.753 175.558 Z M 261.024 155.265 L 260.505 171.24 C 253.524 159.324 241.024 152.668 225.667 152.668 C 197.582 152.668 177.192 175.396 177.192 206.597 C 177.192 237.799 197.712 260.526 225.667 260.526 C 241.024 260.526 253.556 253.87 260.505 242.052 L 261.024 257.896 L 287.193 257.896 L 287.193 155.265 L 261.024 155.265 Z M 232.647 235.364 C 217.485 235.364 207.095 223.643 207.095 206.565 C 207.095 189.487 217.485 177.766 232.647 177.766 C 247.81 177.766 258.199 189.487 258.199 206.565 C 258.199 223.643 247.777 235.364 232.647 235.364 Z M 174.984 155.458 L 148.458 155.458 L 148.458 146.691 C 148.458 133.574 153.588 128.542 166.9 128.542 C 171.023 128.542 174.367 128.639 176.283 128.834 L 176.283 106.334 C 172.646 105.327 163.783 104.321 158.653 104.321 C 131.542 104.321 119.042 117.113 119.042 144.743 L 119.042 155.425 L 102.289 155.425 L 102.289 180.231 L 119.042 180.231 L 119.042 257.862 L 148.49 257.862 L 148.49 180.263 L 170.439 180.263 L 174.984 155.458 Z"/>

<path fill="#0866FF" d="M 303.583 257.897 L 333.063 257.897 L 333.063 210.201 L 374.2 257.897 L 410.272 257.897 L 362.382 202.928 L 403.291 155.265 L 370.466 155.265 L 333.063 199.195 L 333.063 102.213 L 303.583 106.077 L 303.583 257.897 Z M 813.595 152.636 C 780.867 152.636 758.14 174.649 758.14 206.565 C 758.14 238.481 780.867 260.494 813.595 260.494 C 846.322 260.494 869.05 238.481 869.05 206.565 C 869.05 174.649 846.322 152.636 813.595 152.636 Z M 813.595 235.364 C 798.432 235.364 788.043 223.643 788.043 206.565 C 788.043 189.487 798.432 177.766 813.595 177.766 C 828.757 177.766 839.147 189.487 839.147 206.565 C 839.147 223.643 828.757 235.364 813.595 235.364 Z M 693.788 152.636 C 661.061 152.636 638.333 174.649 638.333 206.565 C 638.333 238.481 661.061 260.494 693.788 260.494 C 726.516 260.494 749.243 238.481 749.243 206.565 C 749.243 174.649 726.516 152.636 693.788 152.636 Z M 693.788 235.364 C 678.626 235.364 668.236 223.643 668.236 206.565 C 668.236 189.487 678.626 177.766 693.788 177.766 C 708.951 177.766 719.34 189.487 719.34 206.565 C 719.34 223.643 708.951 235.364 693.788 235.364 Z M 580.962 152.636 C 567.326 152.636 556.027 157.993 548.949 167.798 L 548.949 102.213 L 519.436 106.044 L 519.436 257.864 L 545.605 257.864 L 546.124 242.02 C 553.105 253.838 565.605 260.494 580.962 260.494 C 608.95 260.494 629.437 237.766 629.437 206.565 C 629.437 175.363 609.047 152.636 580.962 152.636 Z M 573.982 235.364 C 558.819 235.364 548.43 223.643 548.43 206.565 C 548.43 189.487 558.819 177.766 573.982 177.766 C 589.144 177.766 599.534 189.487 599.534 206.565 C 599.534 223.643 589.144 235.364 573.982 235.364 Z M 460.344 236.695 C 444.695 236.695 433.461 229.422 429.63 216.89 L 502.26 216.89 C 502.975 213.059 503.462 208.513 503.462 205.461 C 503.462 172.441 484.987 152.636 453.948 152.636 C 422.617 152.636 400.928 174.649 400.928 206.565 C 400.928 238.903 423.656 260.494 457.39 260.494 C 474.857 260.494 491.838 254.65 502.455 244.942 L 491.838 226.241 C 481.546 233.351 471.448 236.695 460.344 236.695 Z M 453.753 175.558 C 467.39 175.558 476.091 183.837 476.091 196.662 L 476.091 196.76 L 429.013 196.76 C 431.838 183.156 440.636 175.558 453.753 175.558 Z M 261.024 155.265 L 260.505 171.24 C 253.524 159.324 241.024 152.668 225.667 152.668 C 197.582 152.668 177.192 175.396 177.192 206.597 C 177.192 237.799 197.712 260.526 225.667 260.526 C 241.024 260.526 253.556 253.87 260.505 242.052 L 261.024 257.896 L 287.193 257.896 L 287.193 155.265 L 261.024 155.265 Z M 232.647 235.364 C 217.485 235.364 207.095 223.643 207.095 206.565 C 207.095 189.487 217.485 177.766 232.647 177.766 C 247.81 177.766 258.199 189.487 258.199 206.565 C 258.199 223.643 247.777 235.364 232.647 235.364 Z M 174.984 155.458 L 148.458 155.458 L 148.458 146.691 C 148.458 133.574 153.588 128.542 166.9 128.542 C 171.023 128.542 174.367 128.639 176.283 128.834 L 176.283 106.334 C 172.646 105.327 163.783 104.321 158.653 104.321 C 131.542 104.321 119.042 117.113 119.042 144.743 L 119.042 155.425 L 102.289 155.425 L 102.289 180.231 L 119.042 180.231 L 119.042 257.862 L 148.49 257.862 L 148.49 180.263 L 170.439 180.263 L 174.984 155.458 Z"></path>
</svg>
